<svg xmlns="http://www.w3.org/2000/svg" viewBox="67 -9 318 318" enable-background="new 67 -9 318 318"><style>.lp_teaser-overlay-icons {fill:#4dac64;}</style><path d="M300.577 184.317H151.423V124.55H300.58v59.767h-.003zM376 150c0 82.842-67.158 150-150 150S76 232.8 76 150 143.158 0 226 0s150 67.2 150 150zm-230.76-28.176v65.217c0 1.9 1 3.5 2.3 3.46h157.005c1.248 0 2.26-1.55 2.26-3.45v-65.22c0-1.91-1.012-3.45-2.26-3.45H147.5c-1.25.04-2.3 1.54-2.3 3.44zm142.824-27.15V81.34H145.24v13.334h142.824zm-142.632 151.54h144.246v-13.336H145.432v13.335zm124.905 40.004h-88.674c14.013 4.3 28.9 6.7 44.3 6.67s30.36-2.288 44.337-6.67zm36.618-26.67H145.432v9.834c1.893 1.2 3.8 2.4 5.8 3.5h149.6c2.086-1.202 4.135-2.45 6.154-3.746v-9.588zm0-53.337H145.432v13.34h161.523v-13.34zm20.397-139.27c0-5.73-4.626-10.39-10.31-10.39H134.958c-5.686 0-10.312 4.67-10.312 10.4v186.51c2.013 1.8 4.1 3.6 6.2 5.38V66.94c0-2.32 1.85-4.21 4.13-4.21H317.06c2.277 0 4.1 1.9 4.1 4.21v191.89c2.112-1.738 4.17-3.535 6.183-5.38V66.937h.008z" class="lp_teaser-overlay-icons"/></svg>