<svg width="19" height="19" viewBox="0 0 1500 1500" xmlns="http://www.w3.org/2000/svg"><path d="M744.6,1186c-181.7-131.6-504.9-412.3-504.9-639.8C239.7,335.1,386.8,287,452,287s149.6,37.2,190.2,90.1l93.2,121.5c4.8,6.3,14.4,6.3,19.2,0l92.8-121.8c40.3-52.9,133.3-89.8,190-89.8c50.2,0,69.6,8,109,36l-21.2,6.7l-78.1,11.3l264,247.5l73.9-353.6l-71.2,35.3l-26.3,8.3c-87-98.2-210.7-120.6-250.1-120.6c-110.9,0-227.2,54.7-292.7,140.7c-66-86-182.3-140.7-293.4-140.7c-62.5,0-340.7,65.5-340.7,388.4c0,391.7,634.1,796.5,634.1,796.5s494-315.6,609.6-659.1l-123.5-37.7C1160,850.5,900.4,1073.1,744.6,1186z" fill="#FFF" fill-rule="evenodd" /></svg>
