<?xml version="1.0" encoding="utf-8"?>
<!-- Generator: Adobe Illustrator 17.1.0, SVG Export Plug-In . SVG Version: 6.00 Build 0)  -->
<!DOCTYPE svg PUBLIC "-//W3C//DTD SVG 1.1//EN" "http://www.w3.org/Graphics/SVG/1.1/DTD/svg11.dtd">
<svg version="1.1" xmlns="http://www.w3.org/2000/svg" xmlns:xlink="http://www.w3.org/1999/xlink" x="0px" y="0px"
	 viewBox="0 0 76 24" enable-background="new 0 0 76 24" xml:space="preserve">
		<path d="M1.3,10.1L0,13.9h10.5c0,0,4.9-1.2,5-5.2c0,0,0.7-2.6-3.3-3.4c0,0-1.3-0.7,0-1.7h5.5L21,0.2h-9.6c0,0-3.7,0.3-4.3,4.9
			c0,0-0.8,3.1,3.7,3.4c0,0,1.1,0.9-0.3,1.7L1.3,10.1z"/>
		<path d="M34.4,0.2c0,0-2.5,0.4-3.3,2.7l-4,10.8h4.2l1.9-5.1h3.5l1.2-2.9h-3.5l0.8-2.1h4.7l3.5-3.4H34.4z"/>
		<path d="M60.2,0.2h-5.9l-4.8,13.5h4.1L55,9.7h0.4l1,4.1h4.5L59.1,8c1.9-1,2.4-1.6,2.4-1.6C63.1,4.6,63,3,63,3
			C63.1,0.7,60.2,0.2,60.2,0.2z M58.7,5.1c-0.8,1.6-2.8,1.2-2.8,1.2L57,3.1h1.4C59.7,3.5,58.7,5.1,58.7,5.1z"/>
		<path d="M62.6,13.7l3.6-9.9h-2.3c0,0,0.5-2.6-1.3-3.5H76l-1.4,3.5h-4.5l-3.7,9.9H62.6z"/>
		<path d="M51.4,16.9l-1.6,4.9c0,0-0.5,1.5,1.7,2c0,0,1.8,0.2,2.8-1.5l2-5.4h-1.6l-1.6,4.7c0,0-0.3,0.6-1.1,0.7c0,0-0.8-0.1-0.6-0.8
			l1.5-4.6H51.4z"/>
		<path d="M4.4,15.8c0,0,0.1-0.7,0.7-0.9c0,0,0.4-0.1,0.5,0.2c0,0,0.1,0.2,0,0.6c0,0-0.2,0.5-0.6,0.6c0,0-0.2,0.1-0.5-0.1
			C4.5,16.2,4.3,16.1,4.4,15.8z"/>
		<path d="M6.5,15.8c0,0,0.1-0.7,0.7-0.9c0,0,0.4-0.1,0.5,0.2c0,0,0.1,0.2,0,0.6c0,0-0.2,0.5-0.6,0.6c0,0-0.2,0.1-0.5-0.1
			C6.6,16.2,6.5,16.1,6.5,15.8z"/>
		<path d="M3.2,16.9l-1.6,4.9c0,0-0.5,1.5,1.7,2c0,0,1.8,0.2,2.8-1.5l2-5.4H6.5l-1.6,4.7c0,0-0.3,0.6-1.1,0.7c0,0-0.8-0.1-0.6-0.9
			l1.5-4.6H3.2z"/>
		<path d="M12.4,16.8l-2.9,0l-2.6,6.9h3.1c0,0,1.4,0.1,2.1-1c0,0,0.9-1.5,0.2-2.2L12,20.1c0,0,1.1-0.4,1.3-1.4
			C13.3,18.7,13.8,17.2,12.4,16.8z M11,21.8c-0.1,0.5-0.8,0.9-0.8,0.9l-1.5,0l0.7-1.8h1.4C11.2,21.2,11,21.8,11,21.8z M12,18.8
			c-0.1,0.5-0.8,0.9-0.8,0.9l-1.5,0l0.7-1.8h1.3C12.2,18.3,12,18.8,12,18.8z"/>
		<polygon points="36.9,16.9 34.4,23.7 38.5,23.7 39,22.7 36.4,22.7 37.1,20.8 39.3,20.8 39.8,19.6 37.6,19.6 38.2,18 40.6,18
			41,16.9 "/>
		<polygon points="15.5,16.9 12.9,23.7 17,23.7 17.5,22.7 15,22.7 15.6,20.8 17.9,20.8 18.3,19.6 16.1,19.6 16.7,18 19.2,18
			19.6,16.9 "/>
		<path d="M25.2,18c-0.2-1.1-1.2-1.2-1.2-1.2h-3l-2.6,6.8h1.7l0.9-2.7l0.6,0c0.2,0.1,0.3,0.3,0.3,0.3c0.2,0.2,0.2,2.4,0.2,2.4h1.5
			c0-2.5-0.6-3.2-0.6-3.2c1.4-0.2,1.8-1.1,1.8-1.1C25.4,18.9,25.2,18,25.2,18z M23.4,19.1c-0.3,0.5-0.9,0.8-0.9,0.8h-1l0.7-1.9h1.1
			C23.7,18.4,23.4,19.1,23.4,19.1z"/>
		<path d="M26.6,16.9l-0.9,6.8h1.9l2.6-3.9l-0.4,3.8l1.9,0c0,0,4.2-6.8,4.2-6.8c0,0-1.5,0-1.5,0l-2.8,4.8l0.4-4.8h-1.4l-3,4.9l0.5-5
			L26.6,16.9z"/>
		<polygon points="42.5,16.9 44,16.9 41.5,23.7 40,23.7 "/>
		<path d="M48.6,18.5l0.7-1c0,0-1.4-1.1-3.2-0.4c0,0-0.9,0.2-1.2,1.8c0,0-0.4,1.1,1.5,2.1c0,0,0.8,0.7-0.3,1.5c0,0-1,0.5-1.9-0.5
			l-0.9,0.9c0,0,0.6,0.7,1.9,0.9c0,0,0.9,0.3,2-0.6c0,0,0.6-0.5,1-1.4c0,0,0.3-1.1-0.4-1.6c0,0-1.4-0.6-1.4-1.1c0,0,0-1,1.1-0.9
			L48.6,18.5z"/>
		<polygon points="55.4,23.7 58.3,16.9 59.7,16.9 60.4,21.5 62.2,16.9 63.6,16.9 60.9,23.7 59.4,23.7 58.7,19.2 56.9,23.7 "/>
		<path d="M69.6,18.7l0.7-1c0,0-0.6-0.8-2.2-0.9s-2.7,0.2-3.8,2.1c0,0-1,1.9-0.8,2.9c0,0,0.2,1.2,1.5,1.8c0,0,2.4,0.7,3.4-1l1-2.8
			l-2.5,0l-0.4,0.9h1.1c0,0,0.1,1.2-1,1.6c0,0-1.1,0.1-1.4-0.6c0,0-0.3-1.1,0.5-2.3c0,0,0.3-0.5,1.2-1C67.7,17.9,68.5,17.9,69.6,18.7z
			"/>
		<path d="M59.4,18.2"/>
		<path d="M29,2c-1.3-2.8-5.5-1.8-5.5-1.8c-6.1,1.8-6.8,9.2-6.8,9.2c-0.2,2.6,0.6,3.4,2.2,4.1c1.6,0.7,3.5,0.3,3.5,0.3
			c3.6-0.8,5.9-5.9,5.9-5.9C30,4.1,29,2,29,2z M24.7,8c0,0-1.6,2.9-3,3.1c0,0-0.8,0.1-1.3-0.4c-0.5-0.5-0.7-1.1-0.3-2.6
			c0,0,1.3-4.4,3.8-5c0,0,1.7-0.3,1.9,1.5C25.7,4.6,25.8,5.9,24.7,8z"/>
		<path d="M51.4,2c-1.3-2.8-5.5-1.8-5.5-1.8c-6,1.8-6.8,9.2-6.8,9.2c-0.2,2.5,0.6,3.4,2.2,4.1c1.6,0.6,3.5,0.3,3.5,0.3
			c3.6-0.8,5.9-5.9,5.9-5.9C52.4,4,51.4,2,51.4,2z M47,7.9c0,0-1.6,2.9-3,3.1c0,0-0.8,0.1-1.3-0.4C42.2,10,42,9.4,42.4,7.9
			c0,0,1.3-4.4,3.8-4.9c0,0,1.7-0.2,1.8,1.5C48,4.5,48.2,5.8,47,7.9z"/>
</svg>
