<svg xmlns="http://www.w3.org/2000/svg" xmlns:xlink="http://www.w3.org/1999/xlink" version="1.1" x="0px" y="0px" viewBox="67 -9 318 318" enable-background="new 67 -9 318 318" xml:space="preserve"><style>.lp_teaser-overlay-icons {fill:#4dac64;}</style><g><path d="M300.577 184.317H151.423v-59.766H300.58v59.766H300.577z M376 150c0 82.842-67.158 150-150 150 S76 232.8 76 150S143.158 0 226 0S376 67.2 376 150z M145.24 121.824v65.217c0 1.9 1 3.5 2.3 3.456h157.005 c1.248 0 2.259-1.548 2.259-3.456v-65.217c0-1.908-1.011-3.456-2.259-3.456H147.499C146.251 118.4 145.2 119.9 145.2 121.8 z M288.064 94.674V81.339H145.24v13.335H288.064z M145.432 246.213h144.246v-13.335H145.432V246.213z M270.337 286.218h-88.674 c14.013 4.3 28.9 6.7 44.3 6.669S256.324 290.6 270.3 286.218z M306.955 259.548H145.432v9.834 c1.893 1.2 3.8 2.4 5.8 3.501h149.601c2.085-1.203 4.134-2.451 6.153-3.747V259.548z M306.955 206.211H145.432v13.335 h161.523V206.211z M327.352 66.936c0-5.73-4.626-10.395-10.311-10.395H134.959c-5.685 0-10.311 4.665-10.311 10.395v186.51 c2.013 1.8 4.1 3.6 6.2 5.379V66.936c0-2.322 1.851-4.212 4.131-4.212h182.082c2.277 0 4.1 1.9 4.1 4.212v191.889 c2.112-1.737 4.17-3.534 6.183-5.379V66.936H327.352z" class="lp_teaser-overlay-icons"/></g></svg>
