<svg xmlns="http://www.w3.org/2000/svg" xmlns:xlink="http://www.w3.org/1999/xlink" version="1.1" x="0px" y="0px" viewBox="67 -9 318 318" enable-background="new 67 -9 318 318" xml:space="preserve"><style>.laterpay-teaser-overlay-icons {fill:#4dac64;}</style><path d="M307.168 145.377c0.618 1.4 0.9 2.9 0.9 4.482c0 1.707-0.729 3.195-2.181 4.5 s-3.249 1.911-5.382 1.911c-2.208 0-3.855-0.642-4.938-1.926c-1.086-1.284-1.629-3.045-1.629-5.289c0-2.583 0.582-4.59 1.752-6.015 c1.164-1.425 2.844-2.139 5.031-2.139c1.437 0 2.7 0.4 3.8 1.212C305.683 142.9 306.6 144 307.2 145.377z M223.069 140.817c-2.424 0-4.188 1.155-5.289 3.471c-1.104 2.313-1.653 6.156-1.653 11.52c0 5.4 0.5 9.2 1.7 11.5 c1.101 2.3 2.9 3.4 5.3 3.447c2.421 0 4.194-1.167 5.316-3.501c1.119-2.331 1.683-6.144 1.683-11.439 c0-5.274-0.561-9.093-1.683-11.454C227.263 142 225.5 140.8 223.1 140.817z M376 150c0 82.842-67.158 150-150 150 S76 232.8 76 150S143.158 0 226 0S376 67.2 376 150z M269.938 215.352c0-0.777 0.387-1.185 1.185-1.185h23.691 c0.639 0-35.079-28.086-47.733-38.019c0.93-0.123 1.725-0.411 2.274-1.002c0.687-0.744 1.035-1.755 1.035-3.027 c0-1.257-0.342-2.247-1.023-2.973c-0.681-0.729-1.677-1.092-2.988-1.092c-1.293 0-2.28 0.351-2.958 1.1 c-0.681 0.699-1.023 1.704-1.023 3.015c0 0.8 0.2 1.4 0.4 1.962c0.669 9.5 4.6 65.7 4.6 64.965l14.214-20.139 l1.185-1.185l1.185 1.185l18.954 34.353h1.185l3.555-2.37l1.185-1.185L269.938 215.352z M268.852 142.9 c-0.144 1.776-0.216 4.182-0.216 7.215v25.407h6.324v-39.351h-5.274l-11.574 9.096l3.177 4.011c3.426-2.781 5.442-4.431 6.045-4.953 C267.931 143.8 268.4 143.3 268.9 142.863z M338.974 188.511V117.96c0-5.058-4.116-9.171-9.171-9.171H111.22 c-5.058 0-9.168 4.113-9.168 9.171v70.551c0 5.1 4.1 9.2 9.2 9.171h124.716l-0.48-6.786H111.22 c-1.311 0-2.382-1.071-2.382-2.385V117.96c0-1.314 1.071-2.385 2.382-2.385H329.8c1.314 0 2.4 1.1 2.4 2.385v70.551 c0 1.314-1.071 2.385-2.385 2.385h-50.814c3.618 2.9 6.3 5.1 8.4 6.786H329.8 C334.858 197.7 339 193.6 339 188.511z M308.365 156.696c-0.195 4.917-1.344 8.523-3.444 10.8 c-2.097 2.298-5.283 3.444-9.555 3.444c-1.614 0-3.222-0.222-4.818-0.672v5.304c1.041 0.3 2.8 0.4 5.1 0.4 c6.279 0 10.983-1.911 14.103-5.733c3.123-3.822 4.683-9.609 4.683-17.361c0-3.624-0.564-6.735-1.695-9.327 c-1.131-2.592-2.739-4.572-4.818-5.934c-2.082-1.362-4.521-2.046-7.32-2.046c-3.984 0-7.131 1.215-9.438 3.6 c-2.304 2.433-3.456 5.703-3.456 9.81c0 3.8 1 6.8 3 8.937c1.992 2.2 4.7 3.3 8.2 3.3 c2.007 0 3.762-0.36 5.262-1.077c1.497-0.717 2.778-1.884 3.834-3.498h0.324V156.696z M233.056 140.7 c-2.262-3.444-5.592-5.166-9.987-5.166c-4.503 0-7.854 1.644-10.053 4.938c-2.199 3.291-3.297 8.412-3.297 15.4 c0 6.6 1.1 11.6 3.4 15.072c2.262 3.4 5.6 5.1 10 5.142c4.521 0 7.881-1.659 10.08-4.98 c2.199-3.318 3.297-8.4 3.297-15.234C236.446 149.2 235.3 144.1 233.1 140.682z M182.602 138.843v6.705l19.458-9.78 l-19.458-9.807l-0.018 6.696h-53.499v42.834h46.098v-30.483h-6.654v24.3h-32.781v-30.465H182.602z M164.161 148.875l-23.145-2.007 l6.792 14.985h11.814L164.161 148.875z M157.891 162.273c-1.077 0-1.95 0.819-1.95 1.839c0 1 0.9 1.8 1.9 1.8 s1.956-0.816 1.956-1.806C159.847 163.1 159 162.3 157.9 162.273z M148.306 162.273c-1.083 0-1.962 0.819-1.962 1.8 c0 1 0.9 1.8 2 1.806c1.083 0 1.947-0.816 1.947-1.806C150.253 163.1 149.4 162.3 148.3 162.273z M139.468 144.489c-0.726 0-1.311 0.549-1.311 1.23c0 0.7 0.6 1.2 1.3 1.227c0.741 0 1.317-0.549 1.317-1.227 C140.785 145 140.2 144.5 139.5 144.489z" class="laterpay-teaser-overlay-icons"/></svg>
