<svg xmlns="http://www.w3.org/2000/svg" viewBox="67 -9 318 318" enable-background="new 67 -9 318 318"><style>.lp_teaser-overlay-icons {fill:#4dac64;}</style><path d="M307.168 145.377c.618 1.4.9 2.9.9 4.482 0 1.705-.73 3.193-2.18 4.5s-3.25 1.91-5.383 1.91c-2.208 0-3.855-.643-4.938-1.927-1.086-1.284-1.63-3.045-1.63-5.29 0-2.582.583-4.59 1.753-6.014 1.164-1.426 2.844-2.14 5.03-2.14 1.438 0 2.7.4 3.8 1.212 1.163.787 2.08 1.887 2.68 3.264zm-84.1-4.56c-2.423 0-4.187 1.155-5.288 3.47-1.104 2.314-1.653 6.157-1.653 11.52 0 5.4.5 9.2 1.7 11.5 1.1 2.3 2.9 3.4 5.3 3.448 2.42 0 4.194-1.167 5.316-3.5 1.12-2.332 1.683-6.145 1.683-11.44 0-5.274-.56-9.093-1.683-11.454-1.18-2.36-2.943-3.56-5.343-3.542zM376 150c0 82.842-67.158 150-150 150S76 232.8 76 150 143.158 0 226 0s150 67.2 150 150zm-106.062 65.352c0-.777.387-1.185 1.185-1.185h23.69c.64 0-35.078-28.086-47.732-38.02.93-.122 1.727-.41 2.276-1 .687-.745 1.035-1.756 1.035-3.028 0-1.26-.34-2.25-1.022-2.975-.68-.73-1.677-1.092-2.988-1.092-1.294 0-2.28.35-2.96 1.1-.68.7-1.022 1.704-1.022 3.015 0 .8.2 1.4.4 1.96.67 9.5 4.6 65.7 4.6 64.966l14.214-20.14 1.185-1.184 1.185 1.185 18.954 34.353h1.185l3.557-2.37 1.185-1.185-18.922-34.403zm-1.086-72.452c-.144 1.776-.216 4.182-.216 7.215v25.407h6.324v-39.35h-5.274l-11.574 9.095 3.177 4.01c3.424-2.78 5.44-4.43 6.043-4.952.597-.525 1.066-1.025 1.566-1.462zm70.122 45.61v-70.55c0-5.058-4.116-9.17-9.17-9.17H111.22c-5.058 0-9.168 4.112-9.168 9.17v70.55c0 5.1 4.1 9.2 9.2 9.172h124.716l-.48-6.786H111.22c-1.31 0-2.382-1.07-2.382-2.385v-70.55c0-1.313 1.07-2.384 2.382-2.384H329.8c1.314 0 2.4 1.1 2.4 2.385v70.55c0 1.316-1.07 2.387-2.385 2.387H279c3.62 2.9 6.3 5.1 8.4 6.786h42.4c5.058.018 9.2-4.082 9.2-9.17zm-30.61-31.814c-.194 4.917-1.343 8.523-3.443 10.8-2.095 2.298-5.28 3.444-9.553 3.444-1.614 0-3.222-.222-4.818-.672v5.304c1.04.3 2.8.4 5.1.4 6.28 0 10.982-1.91 14.102-5.733 3.124-3.824 4.684-9.61 4.684-17.363 0-3.624-.564-6.735-1.695-9.327-1.13-2.59-2.74-4.57-4.82-5.933-2.08-1.362-4.52-2.046-7.32-2.046-3.982 0-7.13 1.217-9.436 3.6-2.304 2.435-3.456 5.705-3.456 9.81 0 3.8 1 6.8 3 8.94 1.992 2.2 4.7 3.3 8.2 3.3 2.007 0 3.762-.36 5.262-1.078 1.496-.716 2.777-1.883 3.833-3.497h.324v.053zM233.057 140.7c-2.262-3.444-5.592-5.166-9.987-5.166-4.504 0-7.855 1.644-10.054 4.938-2.2 3.29-3.297 8.412-3.297 15.4 0 6.6 1.1 11.6 3.4 15.072 2.26 3.4 5.6 5.1 10 5.142 4.52 0 7.88-1.66 10.08-4.98 2.197-3.318 3.295-8.4 3.295-15.234-.05-6.672-1.196-11.772-3.396-15.19zm-50.454-1.857v6.705l19.458-9.78-19.457-9.807-.018 6.698h-53.5v42.834h46.1V145.01h-6.655v24.3h-32.782v-30.465h46.854zm-18.44 10.032l-23.146-2.007 6.792 14.985h11.813l4.54-12.978zm-6.27 13.398c-1.078 0-1.95.82-1.95 1.84 0 1 .9 1.8 1.9 1.8s1.955-.817 1.955-1.807c.05-1.006-.797-1.806-1.897-1.833zm-9.586 0c-1.083 0-1.962.82-1.962 1.8 0 1 .9 1.8 2 1.806 1.083 0 1.947-.818 1.947-1.808-.037-.973-.89-1.773-1.99-1.8zm-8.838-17.784c-.727 0-1.31.547-1.31 1.23 0 .7.6 1.2 1.3 1.225.74 0 1.315-.55 1.315-1.227.01-.72-.574-1.22-1.274-1.23z" class="lp_teaser-overlay-icons"/></svg>