<svg xmlns="http://www.w3.org/2000/svg" viewBox="65 -9 318 318" enable-background="new 65 -9 318 318"><style>.lp_teaser-overlay-icons {fill:#4dac64;}</style><path d="M156.323 174.79v-4.807c0-.735.54-1.33 1.206-1.33h50.29c.66 0 1.2.6 1.2 1.33v4.806c0 .73-.54 1.32-1.21 1.32h-50.29c-.66-.02-1.227-.62-1.227-1.33zm1.515 13.043h63.228c.837 0 1.515-.594 1.515-1.33V181.7c0-.735-.67-1.33-1.51-1.33h-63.23c-.83 0-1.51.595-1.51 1.33v4.806c0 .696.68 1.296 1.48 1.33zM374 150c0 82.842-67.158 150-150 150S74 232.8 74 150 141.158 0 224 0s150 67.2 150 150zm-70.023-11.89H144.023v50.26c0 6.1 5 11.1 11.1 11.06h137.832c6.108 0 11.06-4.952 11.06-11.06v-50.26zm0-26.48c0-6.108-4.953-11.06-11.06-11.06H155.083c-6.108 0-11.06 4.952-11.06 11.06v10.158H303.98V111.63h-.003z" class="lp_teaser-overlay-icons"/></svg>