<svg xmlns="http://www.w3.org/2000/svg" viewBox="67 -9 318 318" enable-background="new 67 -9 318 318"><style>.lp_teaser-overlay-icons {fill:#4dac64;}</style><path d="M307.168 145.377c.618 1.4.9 2.9.9 4.482 0 1.7-.73 3.19-2.18 4.5s-3.25 1.91-5.383 1.91c-2.208 0-3.855-.65-4.938-1.93-1.086-1.29-1.63-3.05-1.63-5.29 0-2.58.583-4.59 1.753-6.02 1.164-1.43 2.844-2.14 5.03-2.14 1.438 0 2.7.4 3.8 1.21 1.163.78 2.08 1.88 2.68 3.26zm-84.1-4.56c-2.423 0-4.187 1.155-5.288 3.47-1.104 2.314-1.653 6.157-1.653 11.52 0 5.4.5 9.2 1.7 11.5 1.1 2.3 2.9 3.4 5.3 3.448 2.42 0 4.194-1.167 5.316-3.5 1.12-2.332 1.683-6.145 1.683-11.44 0-5.274-.56-9.093-1.683-11.454-1.18-2.36-2.943-3.56-5.343-3.54zM376 150c0 82.842-67.158 150-150 150S76 232.8 76 150 143.158 0 226 0s150 67.2 150 150zm-106.062 65.352c0-.777.387-1.185 1.185-1.185h23.69c.64 0-35.078-28.086-47.732-38.02.93-.122 1.73-.41 2.28-1 .69-.745 1.04-1.756 1.04-3.028 0-1.26-.34-2.25-1.02-2.98-.68-.73-1.67-1.09-2.98-1.09-1.29 0-2.28.35-2.96 1.1-.68.7-1.02 1.7-1.02 3.01 0 .8.2 1.4.4 1.96.67 9.5 4.6 65.7 4.6 64.96l14.22-20.14 1.185-1.19 1.18 1.184 18.95 34.36h1.185l3.556-2.37 1.19-1.186-18.92-34.404zm-1.086-72.452c-.144 1.776-.216 4.182-.216 7.215v25.407h6.324v-39.35h-5.274l-11.574 9.095 3.177 4.01c3.42-2.78 5.44-4.43 6.04-4.952.59-.525 1.06-1.025 1.56-1.462zm70.122 45.61v-70.55c0-5.058-4.116-9.17-9.17-9.17H111.22c-5.058 0-9.168 4.112-9.168 9.17v70.55c0 5.1 4.1 9.2 9.2 9.172h124.716l-.48-6.786H111.22c-1.31 0-2.382-1.07-2.382-2.385v-70.55c0-1.31 1.07-2.38 2.382-2.38H329.8c1.314 0 2.4 1.1 2.4 2.39v70.55c0 1.32-1.07 2.39-2.385 2.39H279c3.62 2.9 6.3 5.1 8.4 6.79h42.4c5.058.02 9.2-4.08 9.2-9.17zm-30.61-31.814c-.194 4.917-1.343 8.523-3.443 10.8-2.09 2.298-5.28 3.444-9.55 3.444-1.61 0-3.22-.222-4.82-.672v5.304c1.04.3 2.8.4 5.1.4 6.28 0 10.99-1.91 14.11-5.733 3.13-3.83 4.69-9.61 4.69-17.37 0-3.63-.56-6.74-1.69-9.33s-2.74-4.57-4.82-5.94c-2.08-1.36-4.52-2.05-7.32-2.05-3.98 0-7.13 1.213-9.43 3.6-2.307 2.43-3.46 5.7-3.46 9.81 0 3.8 1 6.8 3 8.94 1.99 2.2 4.7 3.3 8.2 3.3 2.007 0 3.76-.36 5.26-1.08 1.5-.72 2.78-1.887 3.835-3.5h.325v.05zM233.057 140.7c-2.262-3.444-5.592-5.166-9.987-5.166-4.504 0-7.855 1.644-10.054 4.938-2.2 3.29-3.297 8.412-3.297 15.4 0 6.6 1.1 11.6 3.4 15.072 2.26 3.4 5.6 5.1 10 5.142 4.52 0 7.88-1.66 10.08-4.98 2.19-3.318 3.29-8.4 3.29-15.234-.05-6.672-1.2-11.772-3.4-15.19zm-50.454-1.857v6.705l19.458-9.78-19.45-9.807-.02 6.7h-53.5v42.84h46.1v-30.49h-6.65v24.3h-32.78v-30.46h46.86zm-18.44 10.032l-23.146-2.007 6.792 14.985h11.81l4.54-12.978zm-6.27 13.398c-1.078 0-1.95.82-1.95 1.84 0 1 .9 1.8 1.9 1.8s1.955-.817 1.955-1.807c.05-1.006-.797-1.806-1.897-1.833zm-9.586 0c-1.083 0-1.962.82-1.962 1.8 0 1 .9 1.8 2 1.806 1.083 0 1.947-.82 1.947-1.81-.037-.98-.89-1.78-1.99-1.8zm-8.838-17.784c-.73 0-1.31.54-1.31 1.23 0 .7.6 1.2 1.3 1.22.74 0 1.31-.55 1.31-1.23.01-.72-.58-1.22-1.28-1.23z" class="lp_teaser-overlay-icons"/></svg>