<svg xmlns="http://www.w3.org/2000/svg" xmlns:xlink="http://www.w3.org/1999/xlink" version="1.1" x="0px" y="0px" viewBox="65 -9 318 318" enable-background="new 65 -9 318 318" xml:space="preserve"><style>.laterpay-teaser-overlay-icons {fill:#4dac64;}</style><path d="M156.323 174.789v-4.806c0-0.735 0.54-1.329 1.206-1.329h50.298c0.666 0 1.2 0.6 1.2 1.329v4.806 c0 0.735-0.54 1.329-1.206 1.329h-50.298C156.863 176.1 156.3 175.5 156.3 174.789z M157.838 187.833h63.228 c0.837 0 1.515-0.594 1.515-1.329v-4.806c0-0.735-0.678-1.329-1.515-1.329h-63.228c-0.837 0-1.515 0.594-1.515 1.329v4.806 C156.323 187.2 157 187.8 157.8 187.833z M374 150c0 82.842-67.158 150-150 150S74 232.8 74 150S141.158 0 224 0 S374 67.2 374 150z M303.977 138.111H144.023v50.259c0 6.1 5 11.1 11.1 11.061h137.832 c6.108 0 11.061-4.953 11.061-11.061V138.111z M303.977 111.63c0-6.108-4.953-11.061-11.061-11.061H155.084 c-6.108 0-11.061 4.953-11.061 11.061v10.158H303.98V111.63H303.977z" class="laterpay-teaser-overlay-icons"/></svg>
